<?xml version="1.0" standalone="no"?>
<!DOCTYPE svg PUBLIC "-//W3C//DTD SVG 20010904//EN"
 "http://www.w3.org/TR/2001/REC-SVG-20010904/DTD/svg10.dtd">
<svg version="1.0" xmlns="http://www.w3.org/2000/svg"
 width="500.000000pt" height="500.000000pt" viewBox="0 0 500.000000 500.000000"
 preserveAspectRatio="xMidYMid meet">

<g transform="translate(0.000000,500.000000) scale(0.100000,-0.100000)"
fill="#000000" stroke="none">
<path d="M2234 4735 c-338 -45 -704 -187 -969 -375 -144 -102 -310 -246 -310
-268 0 -4 -3 -6 -7 -5 -10 4 -127 -128 -196 -220 -133 -178 -253 -402 -330
-617 -70 -198 -121 -496 -108 -633 8 -76 9 -79 39 -92 18 -7 33 -12 35 -10 1
1 7 45 13 96 17 161 51 295 111 434 17 39 37 84 44 101 19 43 136 197 181 238
148 133 314 231 568 335 287 117 486 169 790 207 160 20 575 22 725 5 310 -36
655 -123 852 -214 40 -19 85 -38 98 -42 14 -4 63 -29 110 -55 166 -93 233
-139 550 -380 45 -34 129 -73 145 -66 8 2 17 -10 24 -33 12 -40 15 -81 6 -81
-33 0 -211 117 -330 216 -105 87 -310 217 -464 292 -293 145 -638 242 -993
278 -313 31 -788 6 -1043 -55 -318 -77 -686 -230 -877 -363 -33 -24 -75 -52
-92 -64 -32 -22 -86 -78 -146 -153 -77 -96 -151 -255 -191 -410 -27 -105 -46
-278 -32 -292 14 -14 72 -25 231 -43 289 -34 550 -50 1352 -85 434 -19 1218
-10 1775 19 502 26 789 71 860 133 24 20 26 30 32 133 7 136 -10 250 -74 482
-64 235 -137 397 -278 612 -123 189 -281 365 -450 502 -144 117 -511 325 -625
355 -25 6 -98 28 -163 47 -195 59 -324 78 -557 82 -135 2 -239 -2 -306 -11z
m306 -5 c-38 -9 -332 -22 -314 -14 17 7 198 21 279 22 57 0 64 -1 35 -8z m301
-24 c131 -24 191 -37 185 -43 -3 -3 -49 4 -103 15 -91 19 -238 39 -307 41 -16
1 -32 4 -35 7 -9 10 165 -3 260 -20z m-741 -21 c-114 -23 -137 -29 -320 -87
-103 -33 -429 -193 -437 -215 -3 -7 -10 -13 -15 -13 -5 0 -23 -9 -40 -21 -16
-12 -31 -19 -34 -17 -13 14 214 146 381 221 149 66 459 155 545 155 19 0 -17
-10 -80 -23z m1055 -54 c256 -74 508 -211 738 -402 150 -124 351 -343 413
-450 12 -20 29 -48 39 -62 9 -15 15 -27 11 -27 -3 0 -23 26 -43 58 -48 73
-213 274 -272 331 -265 255 -624 473 -896 542 -74 19 -123 38 -100 39 6 0 55
-13 110 -29z m-1971 -356 c-14 -14 -30 -25 -37 -25 -14 1 39 50 53 50 5 0 -2
-11 -16 -25z m-354 -335 c-11 -16 -26 -33 -33 -37 -12 -7 0 11 32 50 23 28 24
20 1 -13z m1860 -252 c53 -16 80 -45 80 -87 -1 -41 -21 -70 -71 -100 -47 -29
-58 -26 -26 7 56 58 43 129 -29 152 -61 20 -189 8 -251 -23 -60 -31 -71 -33
-52 -11 27 33 81 53 214 78 26 4 91 -3 135 -16z m-94 -49 c3 -6 -1 -18 -10
-27 -14 -14 -20 -15 -37 -4 -32 20 -40 5 -22 -41 9 -23 20 -46 25 -51 34 -39
-21 -90 -90 -84 -29 2 -37 7 -37 23 0 17 6 20 43 17 23 -1 42 2 42 7 0 5 -9
28 -20 52 -11 24 -20 52 -20 62 0 36 107 76 126 46z m-246 -81 c-98 -135 62
-197 289 -112 35 13 66 22 68 20 7 -7 -52 -44 -103 -67 -58 -24 -158 -35 -239
-24 -96 12 -143 80 -99 143 17 25 91 82 106 82 4 0 -5 -19 -22 -42z m-348
-342 c4 -6 26 -65 48 -131 73 -220 73 -220 100 -220 l25 0 3 147 c2 140 2 148
-18 158 -14 7 -20 19 -18 33 3 20 9 22 78 22 l75 0 0 -175 0 -175 29 -3 c24
-3 36 4 61 34 46 55 65 43 65 -39 l0 -64 -52 -7 c-29 -3 -98 -6 -153 -6 -55
-1 -136 -5 -180 -9 -43 -5 -85 -7 -92 -4 -18 7 -16 50 2 57 8 3 15 17 15 31 0
24 -3 25 -57 25 -67 0 -79 -6 -88 -41 -5 -19 -2 -28 9 -32 19 -8 21 -31 3 -45
-7 -6 -43 -14 -80 -18 -66 -7 -67 -6 -67 17 0 13 11 32 24 44 18 14 40 67 80
185 49 146 54 166 41 180 -16 18 -19 42 -8 54 11 11 147 -4 155 -18z m-298 3
c63 -17 86 -54 86 -132 -1 -116 -90 -197 -217 -197 l-43 0 0 -45 c0 -32 6 -51
21 -66 33 -33 21 -51 -46 -65 -80 -17 -105 -17 -111 0 -3 8 4 24 15 35 19 19
21 33 21 168 0 120 -3 150 -16 164 -25 27 -8 39 56 39 56 0 60 -2 66 -26 4
-14 4 -50 0 -80 l-6 -54 46 0 c38 0 51 5 74 30 15 16 31 41 34 55 9 36 -18 93
-50 105 -15 6 -104 9 -213 8 -170 -3 -186 -5 -189 -21 -2 -10 19 -73 46 -140
67 -166 79 -215 63 -266 -6 -23 -22 -48 -34 -55 -27 -18 -187 -69 -194 -63 -2
3 -7 39 -10 81 l-6 76 31 0 c24 0 32 -6 41 -30 13 -38 56 -42 72 -7 11 23 10
25 -92 292 -37 99 -35 128 14 183 20 22 24 22 261 22 143 0 257 -5 280 -11z
m1049 -6 c49 -7 96 -39 121 -83 17 -28 21 -52 21 -120 -1 -91 -13 -127 -57
-166 -49 -45 -81 -54 -197 -54 -60 0 -116 3 -125 6 -14 5 -16 31 -16 180 0
163 -1 175 -20 186 -20 13 -27 48 -12 62 7 8 214 0 285 -11z m303 -4 c4 -7 6
-90 6 -186 -1 -102 3 -183 8 -194 13 -22 52 -25 70 -4 8 9 12 63 13 166 l1
152 -29 22 c-47 38 -29 55 58 55 48 0 78 -5 84 -12 16 -20 88 -197 103 -251 7
-26 17 -50 21 -53 5 -3 9 50 9 117 0 111 -2 125 -21 145 -37 40 -19 55 58 52
57 -3 68 -6 71 -21 2 -11 -6 -29 -17 -41 -19 -21 -21 -35 -23 -246 l-3 -225
-44 1 c-62 1 -85 33 -140 189 -25 70 -49 128 -53 131 -4 3 -8 -44 -8 -105 0
-100 2 -111 20 -121 24 -13 26 -38 5 -46 -15 -6 -281 21 -317 32 -25 7 -23 56
2 72 19 11 20 23 20 162 0 132 -2 150 -18 162 -24 17 -35 36 -27 48 9 14 142
13 151 -1z m792 -86 c3 -78 2 -83 -18 -83 -14 0 -27 13 -42 45 -36 73 -90 76
-125 5 -20 -38 -23 -60 -23 -161 0 -137 19 -214 57 -232 38 -17 55 9 61 92 4
55 1 76 -12 95 -9 14 -16 37 -16 52 0 27 0 27 56 20 31 -4 61 -9 67 -13 10 -6
2 -351 -9 -362 -3 -3 -44 8 -92 24 -75 25 -95 37 -142 85 -72 72 -95 133 -95
250 0 94 23 160 73 214 43 45 77 56 172 53 l85 -2 3 -82z m109 -499 c15 -24
15 -29 2 -53 -28 -50 -79 -35 -79 23 0 58 46 76 77 30z"/>
<path d="M1907 3023 c-24 -67 -22 -73 18 -73 25 0 35 4 35 16 0 26 -22 104
-29 104 -4 0 -15 -21 -24 -47z"/>
<path d="M2622 3013 l3 -148 38 -3 c73 -6 117 50 117 148 0 98 -41 150 -117
150 l-44 0 3 -147z"/>
<path d="M3917 2624 c12 -3 24 -14 26 -25 4 -15 4 -14 3 3 -1 17 -8 23 -26 25
-21 1 -21 0 -3 -3z"/>
<path d="M3910 2570 c0 -5 5 -10 11 -10 5 0 7 5 4 10 -3 6 -8 10 -11 10 -2 0
-4 -4 -4 -10z"/>
<path d="M4655 2431 c-22 -19 -135 -53 -239 -71 -209 -36 -433 -58 -796 -80
-226 -14 -1641 -14 -1887 -1 -559 32 -970 68 -1201 107 -52 9 -96 13 -100 10
-8 -9 16 -179 39 -270 48 -190 153 -384 287 -534 120 -135 384 -334 541 -409
268 -126 302 -140 481 -192 270 -78 499 -106 820 -98 245 6 383 27 628 97 196
56 350 118 527 212 172 91 388 261 580 458 61 62 141 145 180 184 38 39 78 89
87 110 39 85 70 229 75 349 5 113 -1 148 -22 128z m-2335 -1223 c0 -7 3 -24 7
-37 4 -17 2 -22 -7 -19 -15 5 -32 53 -22 62 10 10 22 6 22 -6z m68 -29 c-5
-35 -28 -36 -28 -1 0 16 3 32 7 36 11 11 25 -10 21 -35z m373 31 c26 -15 24
-38 -5 -51 -34 -16 -76 -4 -76 21 0 33 44 49 81 30z m-320 -16 c11 -14 13 -14
21 0 15 27 28 18 28 -19 0 -44 18 -46 22 -2 3 28 7 32 35 35 27 3 31 0 26 -17
-3 -11 -12 -22 -22 -24 -10 -3 -8 -5 7 -6 13 0 21 -5 18 -10 -4 -5 0 -12 6
-15 10 -5 10 -7 0 -12 -10 -5 -9 -9 4 -18 22 -16 10 -36 -22 -36 -24 0 -35 20
-11 20 6 0 3 6 -7 12 -19 11 -19 11 -1 24 18 13 18 14 -3 14 -18 0 -22 -6 -22
-35 0 -49 -28 -48 -32 1 -2 27 -10 39 -32 52 -22 13 -30 14 -33 4 -7 -19 -23
-3 -23 24 0 27 21 32 41 8z m216 -2 c-10 -10 -17 -24 -17 -30 0 -7 -4 -12 -10
-12 -5 0 -10 7 -10 15 0 9 -7 18 -15 21 -29 11 -15 24 27 24 39 0 40 -1 25
-18z m-507 -42 c0 -5 -5 -10 -11 -10 -5 0 -8 -4 -4 -9 3 -5 -3 -12 -12 -14
-14 -4 -13 -5 5 -6 12 0 22 -6 22 -12 0 -6 -7 -8 -16 -5 -9 3 -22 6 -30 6 -9
0 -14 11 -14 30 0 27 3 30 30 30 17 0 30 -4 30 -10z m760 -10 c-12 -8 -12 -10
3 -16 23 -9 22 -34 -3 -35 -11 -1 -25 -2 -32 -3 -7 -1 -12 12 -13 29 0 23 5
30 25 35 30 8 40 2 20 -10z m-705 0 c5 -8 11 -8 19 -1 15 13 26 4 26 -20 0
-27 -19 -33 -41 -13 -18 16 -19 16 -19 0 0 -28 -25 -12 -28 17 -3 21 1 27 17
27 11 0 23 -5 26 -10z m89 -12 c5 -10 7 -10 12 0 11 24 34 13 34 -18 0 -34
-14 -38 -42 -13 -17 15 -18 15 -18 0 0 -10 -4 -17 -10 -17 -5 0 -10 14 -10 30
0 31 23 42 34 18z m140 -10 c17 -28 -15 -55 -51 -42 -31 10 -43 42 -21 55 20
14 60 6 72 -13z m246 12 c0 -5 -4 -10 -9 -10 -5 0 -11 -10 -13 -22 -2 -13 -7
-23 -13 -23 -5 0 -11 10 -13 23 -2 12 -8 22 -13 22 -5 0 -9 5 -9 10 0 6 16 10
35 10 19 0 35 -4 35 -10z m70 -10 c0 -11 -6 -20 -12 -21 -7 0 -4 -4 7 -9 18
-7 18 -9 3 -15 -22 -9 -58 11 -58 34 0 24 9 31 37 31 16 0 23 -6 23 -20z m93
-7 c7 -35 2 -40 -19 -22 -13 11 -18 11 -21 2 -6 -16 -33 -17 -33 -2 0 24 22
49 44 49 18 0 25 -7 29 -27z"/>
<path d="M2717 1194 c-13 -13 -7 -24 14 -24 11 0 19 5 17 12 -5 14 -22 21 -31
12z"/>
<path d="M2382 1108 c5 -15 28 -18 29 -3 0 6 -7 12 -17 13 -10 3 -15 -1 -12
-10z"/>
<path d="M326 2413 c-18 -45 9 -287 44 -403 6 -19 15 -56 20 -83 23 -113 148
-394 236 -526 27 -41 63 -96 79 -122 17 -26 44 -62 60 -81 17 -18 50 -58 75
-89 94 -117 333 -326 465 -406 143 -88 223 -132 290 -161 195 -83 223 -94 272
-108 29 -9 53 -20 53 -25 0 -6 -5 -7 -11 -3 -15 9 -155 -16 -177 -32 -13 -10
-15 -17 -6 -31 18 -29 94 -51 246 -70 202 -25 843 -25 1028 0 159 22 196 32
214 59 26 37 5 55 -69 63 -36 4 -62 11 -60 15 3 5 30 16 60 25 84 24 328 130
408 177 95 55 234 149 272 183 17 14 53 44 80 65 56 43 203 191 287 290 148
174 322 481 335 591 l6 52 -206 -205 c-118 -117 -236 -225 -277 -253 -39 -26
-73 -52 -76 -56 -10 -16 -144 -98 -266 -163 -128 -68 -349 -155 -503 -199
-203 -58 -362 -79 -645 -83 -427 -8 -730 50 -1115 213 -33 14 -99 47 -147 74
-48 27 -90 49 -93 49 -8 0 -142 91 -222 151 -87 65 -249 221 -291 279 -111
157 -136 200 -185 320 -64 154 -107 331 -107 435 0 44 -10 58 -47 67 -14 4
-24 0 -27 -9z"/>
</g>
</svg>
